<mxfile host="Electron" modified="2024-01-18T10:54:10.791Z" agent="Mozilla/5.0 (Macintosh; Intel Mac OS X 10_15_7) AppleWebKit/537.36 (KHTML, like Gecko) draw.io/22.1.18 Chrome/120.0.6099.199 Electron/28.1.2 Safari/537.36" etag="gnX5hBEI0aJ0lHgKrW8D" version="22.1.18" type="device">
  <diagram name="Seite-1" id="wsvdN9Rkeskrykhyx7D5">
    <mxGraphModel dx="666" dy="536" grid="1" gridSize="10" guides="1" tooltips="1" connect="1" arrows="1" fold="1" page="1" pageScale="1" pageWidth="827" pageHeight="1169" math="0" shadow="0">
      <root>
        <mxCell id="0" />
        <mxCell id="1" parent="0" />
        <mxCell id="iqY9rrQIbkoI9cQve3fD-3" value="Project" style="endArrow=classic;html=1;rounded=0;" parent="1" source="iqY9rrQIbkoI9cQve3fD-1" target="DDNkM0uk73sY_QqrbPGz-1" edge="1">
          <mxGeometry width="50" height="50" relative="1" as="geometry">
            <mxPoint x="90" y="235" as="sourcePoint" />
            <mxPoint x="140" y="185" as="targetPoint" />
          </mxGeometry>
        </mxCell>
        <mxCell id="iqY9rrQIbkoI9cQve3fD-4" value="" style="group" parent="1" vertex="1" connectable="0">
          <mxGeometry x="140" y="210" width="110" height="135" as="geometry" />
        </mxCell>
        <mxCell id="iqY9rrQIbkoI9cQve3fD-1" value="Project" style="rounded=1;whiteSpace=wrap;html=1;verticalAlign=bottom;" parent="iqY9rrQIbkoI9cQve3fD-4" vertex="1">
          <mxGeometry width="110" height="135" as="geometry" />
        </mxCell>
        <mxCell id="iqY9rrQIbkoI9cQve3fD-2" value="Project" style="rounded=0;whiteSpace=wrap;html=1;" parent="iqY9rrQIbkoI9cQve3fD-4" vertex="1">
          <mxGeometry x="25.384615384615383" y="15" width="59.23076923076923" height="30" as="geometry" />
        </mxCell>
        <mxCell id="DDNkM0uk73sY_QqrbPGz-4" value="Task" style="rounded=0;whiteSpace=wrap;html=1;" parent="iqY9rrQIbkoI9cQve3fD-4" vertex="1">
          <mxGeometry x="33.84615384615385" y="75" width="42.3076923076923" height="30" as="geometry" />
        </mxCell>
        <mxCell id="iqY9rrQIbkoI9cQve3fD-5" value="" style="endArrow=classic;html=1;rounded=0;" parent="iqY9rrQIbkoI9cQve3fD-4" source="iqY9rrQIbkoI9cQve3fD-2" target="DDNkM0uk73sY_QqrbPGz-4" edge="1">
          <mxGeometry width="50" height="50" relative="1" as="geometry">
            <mxPoint y="165" as="sourcePoint" />
            <mxPoint x="42.30769230769231" y="115" as="targetPoint" />
          </mxGeometry>
        </mxCell>
        <mxCell id="iqY9rrQIbkoI9cQve3fD-9" value="Project" style="endArrow=classic;html=1;rounded=0;" parent="1" source="iqY9rrQIbkoI9cQve3fD-1" target="2eIolLsqnR1whtfJXhGp-1" edge="1">
          <mxGeometry width="50" height="50" relative="1" as="geometry">
            <mxPoint x="300" y="280" as="sourcePoint" />
            <mxPoint x="350" y="230" as="targetPoint" />
          </mxGeometry>
        </mxCell>
        <mxCell id="2eIolLsqnR1whtfJXhGp-1" value="Customer" style="rounded=1;whiteSpace=wrap;html=1;verticalAlign=bottom;" parent="1" vertex="1">
          <mxGeometry x="327.86" y="217.5" width="112.14" height="120" as="geometry" />
        </mxCell>
        <mxCell id="2eIolLsqnR1whtfJXhGp-2" value="Customer" style="rounded=0;whiteSpace=wrap;html=1;" parent="1" vertex="1">
          <mxGeometry x="348.53" y="240" width="70.8" height="32" as="geometry" />
        </mxCell>
        <mxCell id="GKB9GKNqyIDsi5YKzJeb-1" value="Project" style="whiteSpace=wrap;html=1;align=center;" parent="1" vertex="1">
          <mxGeometry x="358.07454545454544" y="285" width="51.70454545454545" height="30" as="geometry" />
        </mxCell>
        <mxCell id="DDNkM0uk73sY_QqrbPGz-1" value="Issue" style="rounded=1;whiteSpace=wrap;html=1;verticalAlign=bottom;" parent="1" vertex="1">
          <mxGeometry x="150" y="40" width="100" height="120" as="geometry" />
        </mxCell>
        <mxCell id="DDNkM0uk73sY_QqrbPGz-3" value="Issue" style="rounded=0;whiteSpace=wrap;html=1;" parent="1" vertex="1">
          <mxGeometry x="170" y="60" width="60" height="30" as="geometry" />
        </mxCell>
        <mxCell id="2eIolLsqnR1whtfJXhGp-4" value="Project" style="rounded=0;whiteSpace=wrap;html=1;" parent="1" vertex="1">
          <mxGeometry x="175" y="100" width="50" height="30" as="geometry" />
        </mxCell>
      </root>
    </mxGraphModel>
  </diagram>
</mxfile>
